<svg id="benfrench-glyph" xmlns="http://www.w3.org/2000/svg" width="41.074" height="26.19" viewBox="0 0 41.074 26.19">
  <path id="Path_1" data-name="Path 1" d="M19.284,0h-9.1A13.758,13.758,0,0,0,5.147.806,6.641,6.641,0,0,0,2.065,3.082,5.845,5.845,0,0,0,1.024,6.548a5.508,5.508,0,0,0,.632,2.634A5.649,5.649,0,0,0,3.428,11.17a6.947,6.947,0,0,0,2.659,1.107v.256a6.6,6.6,0,0,0-3.069.851,5.948,5.948,0,0,0-2.2,2.16A6.2,6.2,0,0,0,0,18.773,6.724,6.724,0,0,0,1.12,22.6,7.536,7.536,0,0,0,4.3,25.231a11.548,11.548,0,0,0,4.91.959H23.786l-2.25-13.095ZM14.425,20.512H11.1a4.444,4.444,0,0,1-2.685-.672,2.331,2.331,0,0,1-.9-1.988,2.773,2.773,0,0,1,.423-1.56,2.632,2.632,0,0,1,1.2-.972A4.7,4.7,0,0,1,11,14.987h3.428Zm0-9.923H11.509a4.3,4.3,0,0,1-1.65-.294,2.518,2.518,0,0,1-1.119-.851,2.256,2.256,0,0,1-.4-1.361,2.18,2.18,0,0,1,.87-1.861,3.594,3.594,0,0,1,2.2-.645h3.018Z" transform="translate(0)" fill="#e5e5e5"/>
  <path id="Path_2" data-name="Path 2" d="M37.652,5.729V0H16.986L19.237,13.1l2.252,13.094h4.859V15.959H36.526V10.231H26.347v-4.5Z" transform="translate(3.422 0)" fill="#e5e5e5"/>
</svg>
